<?xml version="1.0" encoding="UTF-8" standalone="no"?>
<svg
   xmlns:dc="http://purl.org/dc/elements/1.1/"
   xmlns:cc="http://creativecommons.org/ns#"
   xmlns:rdf="http://www.w3.org/1999/02/22-rdf-syntax-ns#"
   xmlns:svg="http://www.w3.org/2000/svg"
   xmlns="http://www.w3.org/2000/svg"
   xmlns:sodipodi="http://sodipodi.sourceforge.net/DTD/sodipodi-0.dtd"
   xmlns:inkscape="http://www.inkscape.org/namespaces/inkscape"
   width="39.332394mm"
   height="39.066608mm"
   viewBox="0 0 39.332394 39.066608"
   version="1.1"
   id="svg1492"
   sodipodi:docname="logo.svg"
   inkscape:version="0.92.3 (2405546, 2018-03-11)">
  <defs
     id="defs1486" />
  <sodipodi:namedview
     id="base"
     pagecolor="#ffffff"
     bordercolor="#666666"
     borderopacity="1.0"
     inkscape:pageopacity="0.0"
     inkscape:pageshadow="2"
     inkscape:zoom="2.8"
     inkscape:cx="-51.429872"
     inkscape:cy="101.84487"
     inkscape:document-units="mm"
     inkscape:current-layer="layer1"
     showgrid="false"
     inkscape:window-width="1920"
     inkscape:window-height="1146"
     inkscape:window-x="0"
     inkscape:window-y="0"
     inkscape:window-maximized="1"
     fit-margin-top="0"
     fit-margin-left="0"
     fit-margin-right="0"
     fit-margin-bottom="0" />
  <metadata
     id="metadata1489">
    <rdf:RDF>
      <cc:Work
         rdf:about="">
        <dc:format>image/svg+xml</dc:format>
        <dc:type
           rdf:resource="http://purl.org/dc/dcmitype/StillImage" />
        <dc:title></dc:title>
      </cc:Work>
    </rdf:RDF>
  </metadata>
  <g
     inkscape:label="1. réteg"
     inkscape:groupmode="layer"
     id="layer1"
     transform="translate(-31.738565,-237.40122)">
    <path
       d="m 71.070959,256.93452 c 0,10.78795 -8.745363,19.53331 -19.533306,19.53331 -10.787591,0 -19.532952,-8.74536 -19.532952,-19.53331 0,-10.78794 8.745361,-19.5333 19.532952,-19.5333 10.787943,0 19.533306,8.74536 19.533306,19.5333"
       style="fill:#ffffff;fill-opacity:1;fill-rule:nonzero;stroke:none;stroke-width:0.35277775"
       id="path42"
       inkscape:connector-curvature="0" />
    <g
       id="g44"
       transform="matrix(0.35277777,0,0,-0.35277777,33.130273,251.545)">
      <path
         d="M 0,0 1.9,1.681 C 3.313,2.85 4.214,3.435 4.604,3.435 4.798,3.97 5.65,4.871 7.161,6.138 c 0.585,0.098 1.18,0.572 1.79,1.425 0.609,0.853 1.255,1.353 1.936,1.499 0.681,0.146 1.437,0.682 2.266,1.607 0.827,0.925 1.972,1.657 3.433,2.193 l 0.731,0.658 c 1.12,0.876 1.924,1.315 2.412,1.315 l 16.005,6.87 c 0.438,0.194 1.449,-0.159 3.033,-1.059 1.583,-0.903 2.375,-2.328 2.375,-4.276 0,-3.021 -0.658,-4.776 -1.974,-5.262 0.098,-0.195 0.147,-0.439 0.147,-0.731 0,-0.585 -0.731,-2.059 -2.192,-4.421 C 35.661,3.592 34.734,2.167 34.345,1.681 33.955,1.193 33.663,0.536 33.468,-0.292 l -0.731,-1.316 c 0,-0.488 -0.292,-1.169 -0.877,-2.046 l -1.534,-2.632 c -1.365,-1.852 -2.145,-3.484 -2.339,-4.896 0,-0.098 -0.317,-0.511 -0.95,-1.242 l -1.169,-1.9 c -0.39,-2.096 -0.939,-3.325 -1.645,-3.691 -0.706,-0.366 -1.059,-0.694 -1.059,-0.986 0,-1.122 -0.293,-2.169 -0.877,-3.143 l -3.289,-8.917 c -0.292,-0.73 -0.853,-1.949 -1.681,-3.653 l -0.439,-1.901 -1.461,-2.703 v -2.12 l -0.512,-0.877 c -0.195,-0.292 -0.39,-1.011 -0.584,-2.156 -0.196,-1.145 -0.464,-2.071 -0.804,-2.777 -0.342,-0.707 -0.512,-1.254 -0.512,-1.644 v -0.95 l 0.147,-1.169 c 0,-0.196 -0.099,-0.537 -0.293,-1.024 0.097,-0.536 0.146,-1.145 0.146,-1.827 0,-0.292 0.098,-0.584 0.292,-0.877 l 0.293,0.439 c 0.486,0.097 0.986,0.45 1.498,1.06 0.512,0.608 0.987,1.034 1.425,1.278 0.439,0.244 0.804,0.816 1.096,1.718 0.293,0.9 0.755,1.449 1.389,1.644 1.804,1.802 2.804,2.996 3,3.581 l 4.17,6.87 2.56,3.435 c 0,1.07 0.853,2.265 2.562,3.581 0.78,1.217 1.316,2.156 1.608,2.813 0.293,0.658 0.586,0.987 0.878,0.987 0.537,0 0.903,-0.159 1.098,-0.475 0.195,-0.317 0.341,-0.475 0.439,-0.475 0.39,0 0.585,0.267 0.585,0.804 0,0.682 -0.292,1.217 -0.877,1.608 -0.098,0 -0.147,0.097 -0.147,0.292 0,1.217 0.524,2.521 1.573,3.91 1.049,1.388 1.768,2.558 2.158,3.508 0.391,0.95 1.342,2.35 2.854,4.202 1.512,1.851 2.438,3.203 2.78,4.056 0.341,0.852 0.804,1.279 1.39,1.279 h 0.293 c 0.927,0.877 1.731,1.315 2.413,1.315 0.195,0 0.341,-0.292 0.439,-0.877 0.633,0.39 0.95,0.682 0.95,0.877 0,0.487 -0.328,0.804 -0.986,0.951 -0.658,0.146 -0.987,0.438 -0.987,0.876 0,0.293 0.947,1.559 2.843,3.801 1.894,2.24 2.939,3.362 3.133,3.362 0.194,0 0.437,-0.147 0.73,-0.439 l 0.437,0.292 v 1.17 c 0,0.194 0.364,0.658 1.092,1.388 0,0.779 0.316,1.316 0.948,1.608 0.631,0.292 0.947,0.487 0.947,0.585 L 57.59,7.381 h 0.146 c 0.633,0.389 1.046,0.682 1.241,0.877 l 1.754,-0.146 c 0.39,0 0.682,0.34 0.877,1.023 -0.779,0.243 -1.169,0.559 -1.169,0.95 0,0.39 0.376,0.877 1.133,1.462 0.754,0.584 1.133,1.169 1.133,1.753 0,0.536 1.144,1.755 3.434,3.655 0.682,0.778 1.353,1.595 2.01,2.448 0.658,0.852 1.985,1.838 3.983,2.959 0.146,1.218 0.438,1.901 0.877,2.047 l 1.827,-0.146 0.877,0.584 -0.146,1.535 c 2.094,1.364 3.458,2.204 4.092,2.522 0.633,0.316 1.17,0.718 1.609,1.205 2.24,1.51 3.774,2.266 4.604,2.266 l 1.534,-0.292 c 0.828,0.292 1.535,0.438 2.12,0.438 0.486,0 0.876,-0.073 1.169,-0.219 0.292,-0.146 0.804,-0.305 1.534,-0.475 0.731,-0.171 1.377,-0.877 1.938,-2.119 0.559,-1.243 0.84,-2.254 0.84,-3.033 l 0.146,-2.412 c 0,-1.365 -0.622,-2.826 -1.864,-4.386 -1.242,-1.559 -2.254,-2.337 -3.033,-2.337 l -0.95,0.145 C 88.43,17.295 87.467,17.003 86.419,16.809 85.371,16.613 84.336,16.102 83.313,15.273 L 82.875,14.981 H 81.998 L 81.852,14.689 V 14.25 C 81.607,14.056 81.268,13.69 80.829,13.154 80.391,12.618 79.696,11.973 78.746,11.218 77.796,10.461 76.882,9.585 76.005,8.586 75.128,7.587 74.08,6.76 72.863,6.102 71.644,5.444 70.84,4.555 70.451,3.435 L 70.159,3.142 H 69.428 C 68.502,2.07 67.674,1.06 66.943,0.109 66.212,-0.841 65.566,-1.511 65.007,-1.9 64.446,-2.291 64.141,-2.595 64.093,-2.814 64.044,-3.033 63.678,-3.484 62.997,-4.166 l -0.731,-1.462 c -0.731,-0.341 -1.571,-1.158 -2.522,-2.448 -0.95,-1.291 -1.523,-2.035 -1.717,-2.229 l -0.585,-0.731 -1.169,-0.731 c -0.829,-0.829 -1.388,-1.438 -1.681,-1.827 0,-0.926 -0.487,-1.534 -1.461,-1.826 -0.488,-0.439 -0.877,-1.292 -1.17,-2.559 -0.292,-1.267 -0.609,-1.899 -0.95,-1.899 l -1.316,0.146 c -0.147,-0.099 -0.415,-0.488 -0.804,-1.169 l -0.439,-0.659 c -0.292,-0.292 -0.573,-0.803 -0.84,-1.534 -0.269,-0.731 -0.841,-1.268 -1.718,-1.608 -0.584,-1.462 -0.926,-2.193 -1.023,-2.193 l -0.73,-0.584 c -0.196,-0.634 -0.293,-0.999 -0.293,-1.097 -0.877,-1.023 -1.597,-1.79 -2.156,-2.301 -0.56,-0.512 -0.793,-0.841 -0.694,-0.987 -0.195,-0.293 -0.451,-0.561 -0.768,-0.804 -0.317,-0.244 -0.573,-0.694 -0.767,-1.352 -0.195,-0.657 -0.585,-1.036 -1.169,-1.133 l -0.439,-1.023 v -0.95 c -0.195,-0.146 -1.145,-1.341 -2.85,-3.581 l -2.559,-4.312 -5.7,-7.673 c -1.169,0 -1.754,-0.78 -1.754,-2.339 l -1.681,-2.119 c -0.487,-0.488 -0.78,-1.013 -0.877,-1.572 -0.099,-0.56 -0.61,-0.84 -1.535,-0.84 -1.51,-1.803 -3.29,-2.704 -5.336,-2.704 -0.537,0 -0.95,-0.049 -1.242,-0.147 l -2.265,1.536 c -0.683,0.438 -1.146,0.791 -1.389,1.059 -0.245,0.268 -0.415,0.402 -0.512,0.402 -0.975,0.438 -1.998,2.131 -3.069,5.079 -1.073,2.947 -1.608,5.396 -1.608,7.345 0,0.292 0.267,1.608 0.804,3.947 v 0.146 c 0,0.097 -0.11,0.316 -0.329,0.657 -0.22,0.34 -0.329,0.658 -0.329,0.95 0,0.39 0.183,0.719 0.548,0.987 0.365,0.267 0.548,0.548 0.548,0.841 0,1.363 0.243,2.313 0.731,2.849 0.292,0.877 0.439,1.559 0.439,2.047 l -0.293,1.096 c 0,0.389 0.195,0.974 0.585,1.754 0.731,0.34 1.096,0.706 1.096,1.096 l -0.146,2.046 c 0,0.877 0.535,1.389 1.608,1.535 -0.099,0.487 -0.146,0.877 -0.146,1.17 0,0.486 0.12,0.961 0.364,1.425 0.244,0.463 0.391,1.034 0.439,1.717 0.048,0.682 0.256,1.181 0.622,1.499 0.365,0.315 0.645,0.937 0.84,1.863 0.194,0.925 0.779,2.094 1.754,3.508 0.974,1.412 1.558,2.472 1.754,3.179 0.194,0.706 0.366,1.06 0.511,1.06 1.121,0 1.682,0.194 1.682,0.584 0,0.39 -0.318,0.779 -0.951,1.169 l -0.146,0.439 c 0,1.023 0.755,2.168 2.266,3.435 0,1.412 0.438,2.119 1.315,2.119 l -0.439,1.169 c 0,0.633 0.45,1.742 1.353,3.326 0.901,1.582 1.595,3.373 2.083,5.371 l 0.804,1.097 c 0.389,0.486 0.584,0.828 0.584,1.023 l -0.146,0.877 c 0.486,1.217 0.731,1.875 0.731,1.973 0,0.536 -0.196,0.925 -0.585,1.169 -1.511,-0.195 -2.656,-0.877 -3.435,-2.046 L 21.702,9.719 h -1.389 c -0.78,0 -1.778,-0.828 -2.996,-2.485 L 15.198,5.554 C 12.956,3.897 11.166,2.521 9.826,1.424 8.486,0.328 7.573,-0.61 7.087,-1.389 L 5.991,-3.07 c -0.244,-0.438 -0.61,-1.706 -1.096,-3.8 -0.487,-2.095 -1.827,-3.143 -4.018,-3.143 -3.215,0 -4.822,1.657 -4.822,4.97 0,1.169 1.314,2.851 3.945,5.043"
         style="fill:#973579;fill-opacity:1;fill-rule:nonzero;stroke:none"
         id="path46"
         inkscape:connector-curvature="0" />
    </g>
    <g
       id="g48"
       transform="matrix(0.35277777,0,0,-0.35277777,57.115386,256.88009)">
      <path
         d="M 0,0 0.425,0.376 C 0.681,0.634 0.985,0.736 1.336,0.681 1.687,0.625 2.041,0.645 2.399,0.739 L 8.613,0.93 C 9.199,0.921 9.908,0.841 10.739,0.691 l 1.365,0.093 c 0.384,0.085 0.891,0.033 1.516,-0.156 l 1.373,-0.06 c 0.104,-0.031 0.167,-0.177 0.19,-0.437 0.023,-0.257 0.06,-0.395 0.112,-0.411 1.456,0.601 2.355,0.852 2.696,0.749 l 0.078,-0.023 0.873,-0.566 c 0.157,-0.048 0.355,0.026 0.598,0.223 l 0.202,0.14 c 0.499,-0.487 0.777,-0.739 0.828,-0.754 0.393,-0.118 0.858,-0.158 1.4,-0.12 0.539,0.039 1.032,-0.009 1.477,-0.142 l 1.193,-0.462 2.747,-0.627 c 0.156,-0.047 0.304,-0.193 0.443,-0.436 l 0.827,-0.047 c 0.757,-0.229 1.48,-0.583 2.164,-1.057 0.686,-0.476 1.535,-0.934 2.551,-1.375 1.016,-0.441 1.674,-1.093 1.973,-1.956 l 0.599,-0.483 0.472,-0.142 c 0.678,-0.204 1.005,-0.657 0.98,-1.354 0.068,-0.424 0.293,-0.895 0.675,-1.413 l 0.275,-1.142 c -0.097,-0.172 -0.167,-0.353 -0.212,-0.541 -0.044,-0.189 0.192,-0.494 0.708,-0.919 l 0.134,-0.142 c -0.086,-0.478 0.035,-1.094 0.361,-1.847 0.326,-0.754 0.293,-1.963 -0.099,-3.624 l -0.266,-1.13 -0.421,-2.493 c -0.393,-1.664 -1.278,-3.546 -2.655,-5.65 -1.378,-2.106 -2.636,-3.49 -3.773,-4.155 -0.407,-0.785 -0.756,-1.133 -1.043,-1.046 -1.151,-0.728 -1.857,-1.052 -2.117,-0.974 -0.053,0.017 -0.124,0.071 -0.213,0.165 -0.519,-0.65 -1.242,-1.138 -2.171,-1.461 -0.93,-0.325 -1.523,-0.499 -1.78,-0.522 -0.257,-0.023 -0.921,-0.109 -1.99,-0.256 l -0.874,0.566 c -0.497,-0.321 -0.826,-0.474 -0.989,-0.458 l -2.32,-0.409 c -1.883,-0.037 -3.098,0.027 -3.647,0.193 l -0.891,0.672 c -0.157,0.048 -0.446,-0.117 -0.871,-0.493 l -0.789,0.037 c -0.112,0.235 -0.588,0.53 -1.428,0.884 -0.432,-0.172 -0.764,-0.223 -1,-0.151 l -1.791,0.237 C 8,-34.721 7.925,-34.446 7.985,-33.959 l -0.387,-0.036 -0.311,-0.611 c -0.12,-0.032 -0.258,-0.023 -0.414,0.024 l -2.01,0.908 -1.045,0.013 -1.517,0.862 -0.805,0.141 -0.578,0.578 -0.65,0.095 -0.581,0.378 -0.789,0.036 -0.135,0.141 c -0.163,-0.22 -0.342,-0.383 -0.536,-0.492 -0.193,-0.111 -0.481,-0.377 -0.86,-0.8 -0.741,-0.415 -1.289,-1.023 -1.645,-1.822 -0.357,-0.8 -0.926,-1.132 -1.705,-0.997 -0.083,-0.111 -0.198,-0.243 -0.347,-0.401 0.038,-0.079 0.054,-0.368 0.047,-0.871 L -6.328,-37 c -0.177,-0.754 -0.868,-1.368 -2.071,-1.846 -0.422,-1.081 -0.806,-1.84 -1.146,-2.275 -0.341,-0.434 -0.587,-0.805 -0.744,-1.111 -0.156,-0.305 -0.443,-0.513 -0.86,-0.622 l -0.224,-0.234 -0.322,-1.365 c -0.015,-0.063 -0.138,-0.235 -0.373,-0.518 -0.235,-0.282 -0.57,-0.694 -1.005,-1.233 l -0.345,-0.4 -0.681,-1.459 c -0.628,-0.281 -1.033,-0.814 -1.218,-1.598 l -0.553,-2.705 c -0.111,-0.47 -0.481,-0.881 -1.11,-1.228 -0.628,-0.348 -1.191,-0.447 -1.689,-0.297 -1.28,0.387 -1.937,1.575 -1.972,3.569 l -0.146,0.447 c -0.422,0.699 -0.507,1.582 -0.255,2.648 0.288,1.223 1.255,2.897 2.905,5.02 l 3.907,4.819 c 0.04,0.055 0.446,0.234 1.217,0.54 l 0.388,-0.319 c 0.118,0.031 0.201,0.142 0.246,0.329 0.014,0.063 -0.022,0.561 -0.109,1.495 l 0.044,0.189 c 0.059,0.25 0.186,0.379 0.386,0.387 l 0.413,0.329 0.144,0.965 c 0.668,0.704 1.046,1.178 1.132,1.422 l 0.648,0.963 c 0.43,0.643 0.729,0.956 0.892,0.941 0.297,1.253 0.828,2.085 1.597,2.493 l 0.503,0.704 c 0.122,0.165 0.318,0.222 0.587,0.176 0.267,-0.048 0.41,-0.04 0.424,0.023 0.03,0.126 0.027,0.294 -0.007,0.506 -0.033,0.212 -0.036,0.38 -0.005,0.506 0.073,0.312 0.319,0.676 0.738,1.087 0.419,0.411 0.694,0.597 0.824,0.558 l 0.489,-0.601 0.067,0.282 c -0.195,0.362 -0.271,0.635 -0.226,0.824 0.059,0.25 0.257,0.553 0.591,0.905 0.336,0.353 0.552,0.616 0.648,0.788 l 0.425,0.376 c 0.051,-0.016 0.285,0.384 0.702,1.199 0.416,0.815 0.817,1.148 1.201,0.998 l 0.111,0.471 c 0.075,0.313 0.551,0.976 1.434,1.987 l 3.121,3.795 c 0.126,0.299 0.465,0.784 1.016,1.458 l 0.189,1.153 c 0.118,0.501 0.543,1.213 1.279,2.134 0.734,0.921 1.26,1.333 1.573,1.239 0.155,-0.047 0.26,-0.112 0.309,-0.194 0.051,-0.083 0.103,-0.131 0.156,-0.147 l 0.648,-0.095 0.931,-1.744 c 0.258,-0.448 0.31,-1.118 0.155,-2.011 l 0.091,-0.33 c 0.312,-1.64 0.398,-2.758 0.257,-3.354 -0.178,-0.753 -0.37,-1.308 -0.58,-1.664 -0.211,-0.358 -0.718,-0.7 -1.523,-1.027 -0.868,-0.715 -1.46,-1.384 -1.775,-2.012 -0.316,-0.627 -0.735,-1.181 -1.254,-1.662 -0.518,-0.482 -1.058,-1.259 -1.62,-2.334 -0.562,-1.074 -1.261,-1.786 -2.1,-2.138 -0.278,-0.823 -0.553,-1.513 -0.822,-2.07 l -0.023,-0.094 c -0.044,-0.188 0.036,-0.313 0.245,-0.377 l 1.338,-0.203 c 0.157,-0.046 0.335,-0.15 0.535,-0.311 0.2,-0.161 0.403,-0.273 0.613,-0.336 0.208,-0.063 0.499,-0.018 0.873,0.14 l 0.235,-0.072 c 0.103,-0.03 0.393,-0.287 0.869,-0.766 l 0.178,0.048 c 0.231,0.265 0.425,0.376 0.582,0.328 l 1.483,-0.649 0.766,-0.131 c 0.433,0.172 1.038,0.157 1.817,-0.043 0.777,-0.202 1.335,-0.27 1.671,-0.203 0.338,0.066 0.628,0.079 0.87,0.04 0.243,-0.039 0.58,-0.006 1.01,0.099 0.432,0.105 0.778,0.118 1.039,0.039 0.6,-0.181 1.513,-0.103 2.74,0.232 0.335,-0.236 0.531,-0.361 0.583,-0.378 0.496,-0.149 0.96,-0.021 1.392,0.386 0.431,0.408 0.851,0.583 1.257,0.529 l 2.69,0.549 c 0.233,0.031 0.811,0.411 1.739,1.139 l 0.839,0.352 0.658,0.658 c 0.014,0.062 0.307,0.176 0.878,0.339 -0.092,0.095 -0.147,0.213 -0.169,0.354 l 1.139,0.915 c 0.021,0.33 0.04,0.526 0.056,0.589 l 0.043,0.188 c 0.372,0.392 0.721,0.656 1.049,0.793 0.325,0.137 0.495,0.236 0.51,0.3 l -0.258,0.683 c 0.47,0.328 0.719,0.556 0.748,0.682 l 0.165,1.411 0.723,2.352 c 0.289,1.224 0.411,2.035 0.366,2.435 -0.047,0.4 -0.052,0.796 -0.014,1.189 -0.223,1.309 -0.69,2.475 -1.399,3.496 -0.063,0.086 -0.078,0.208 -0.04,0.365 l 0.033,0.495 0.044,0.187 -1.3,0.191 c -0.051,0.015 -0.098,0.198 -0.143,0.547 -0.044,0.349 -0.195,0.563 -0.457,0.642 l -0.614,-0.117 -0.079,0.024 c -0.183,0.055 -0.57,0.491 -1.162,1.308 -0.141,0.109 -0.461,0.24 -0.956,0.39 l -0.482,0.447 c -0.126,0.173 -0.243,0.275 -0.348,0.307 l -0.235,0.071 -0.946,0.083 -1.954,0.791 -1.148,0.649 c -0.533,-0.242 -0.865,-0.343 -0.996,-0.304 -0.105,0.031 -0.33,0.2 -0.677,0.507 l -0.079,0.024 -1.221,0.166 c -0.38,0.048 -0.695,0.075 -0.944,0.084 l -0.237,0.071 c -0.86,0.26 -1.504,0.555 -1.931,0.885 l -0.235,0.071 c -0.287,0.086 -0.551,0.04 -0.788,-0.14 -0.239,-0.18 -0.436,-0.246 -0.594,-0.199 -0.104,0.032 -0.185,0.274 -0.247,0.73 -0.415,-0.212 -0.709,-0.34 -0.888,-0.387 l -0.629,0.543 c -0.164,-0.221 -1.024,-0.246 -2.58,-0.08 l -1.99,0.097 -0.292,0.189 C 6.386,-2.599 5.849,-2.622 5.435,-2.597 5.021,-2.573 4.643,-2.602 4.301,-2.684 3.96,-2.766 3.611,-2.787 3.258,-2.747 2.904,-2.708 2.37,-2.714 1.658,-2.768 L 1.075,-2.391 C 0.498,-2.587 -0.318,-2.777 -1.368,-2.964 -2.419,-3.15 -3.095,-3.35 -3.398,-3.562 -3.7,-3.772 -3.955,-3.846 -4.164,-3.783 c -0.053,0.016 -0.203,0.095 -0.45,0.236 l -0.077,0.023 c -0.236,0.071 -0.696,-0.135 -1.384,-0.615 -0.688,-0.482 -1.26,-0.805 -1.718,-0.968 -0.458,-0.164 -0.911,-0.507 -1.355,-1.029 -0.445,-0.52 -1.235,-0.76 -2.374,-0.718 -0.066,-0.05 -0.141,-0.127 -0.224,-0.237 l -0.178,-0.752 C -12.408,-8 -12.916,-8.435 -13.448,-9.147 l -0.346,-0.399 -0.289,-0.871 c -0.222,-0.941 -0.446,-1.413 -0.669,-1.411 -0.225,0 -0.471,-0.068 -0.741,-0.205 -0.27,-0.137 -0.51,-0.174 -0.718,-0.111 -0.445,0.134 -0.752,0.731 -0.923,1.79 -0.169,1.059 -0.232,1.684 -0.187,1.872 0.436,1.85 1.268,3.061 2.494,3.632 l 3.499,1.666 c 1.166,0.555 2.089,0.73 2.768,0.525 0.238,0.062 0.531,0.294 0.877,0.694 0.346,0.399 0.964,0.582 1.85,0.55 l 0.56,-0.471 c 0.053,-0.016 0.161,0.085 0.326,0.304 0.162,0.22 0.374,0.374 0.632,0.465 0.26,0.09 0.498,0.236 0.712,0.44 l 1.209,0.492 c 0.051,-0.016 0.111,-0.001 0.179,0.047 l 0.543,-0.364 c 0.051,-0.017 0.137,-0.01 0.258,0.022 0.119,0.031 0.309,0.008 0.57,-0.072 0.103,-0.031 0.219,0.102 0.346,0.4 C -0.358,-0.026 -0.19,0.024 0,0"
         style="fill:#973579;fill-opacity:1;fill-rule:nonzero;stroke:none"
         id="path50"
         inkscape:connector-curvature="0" />
    </g>
  </g>
</svg>
